/* XPM */
static char *_6da0e20f8364b3cfcf101cd17282012J9SfCf6UPDpIiMOI[] = {
/* columns rows colors chars-per-pixel */
"30 30 106 2 ",
"   c #0F762D",
".  c #10772E",
"X  c #11782F",
"o  c #157A32",
"O  c #1A7D36",
"+  c #1E7F39",
"@  c #2B6E27",
"#  c #2B6E28",
"$  c #376623",
"%  c #3C6322",
"&  c #3B6C2C",
"*  c #2B732C",
"=  c #357429",
"-  c #2F7330",
";  c #3E7539",
":  c #3B7A3D",
">  c #524B0E",
",  c #5E540E",
"<  c #4E4F16",
"1  c #514E10",
"2  c #525414",
"3  c #585512",
"4  c #5E5914",
"5  c #5C5D1B",
"6  c #615712",
"7  c #665C12",
"8  c #685E14",
"9  c #53601F",
"0  c #6D6315",
"q  c #62621D",
"w  c #6C641A",
"e  c #626F1F",
"r  c #716516",
"t  c #746812",
"y  c #796C16",
"u  c #75671C",
"i  c #756A19",
"p  c #7A6E1A",
"a  c #7F7216",
"s  c #77751B",
"d  c #7C711B",
"f  c #7F7A19",
"g  c #4B5A22",
"h  c #46662D",
"j  c #546021",
"k  c #5A6623",
"l  c #556A23",
"z  c #5B6923",
"x  c #43772D",
"c  c #5E7626",
"v  c #5F7729",
"b  c #446A30",
"n  c #417035",
"m  c #4F7831",
"M  c #597B36",
"N  c #537D39",
"B  c #5A7C38",
"V  c #646B25",
"C  c #6B6D23",
"Z  c #706D21",
"A  c #796B22",
"S  c #737620",
"D  c #747923",
"F  c #607730",
"G  c #387E40",
"H  c #827517",
"J  c #8D7E16",
"K  c #83761B",
"L  c #857A1B",
"P  c #8A7D1A",
"I  c #856F26",
"U  c #827022",
"Y  c #22813D",
"T  c #33823D",
"R  c #4D813D",
"E  c #50803B",
"W  c #5F893E",
"Q  c #7C822A",
"!  c #66863A",
"~  c #268541",
"^  c #288643",
"/  c #2B8947",
"(  c #2D8846",
")  c #2D8B49",
"_  c #328646",
"`  c #358747",
"'  c #398846",
"]  c #328C4B",
"[  c #338D4C",
"{  c #378D4E",
"}  c #478340",
"|  c #4D8641",
" . c #97860E",
".. c #988709",
"X. c #98860F",
"o. c #99880C",
"O. c #8F8013",
"+. c #8F8016",
"@. c #8E8019",
"#. c #88801F",
"$. c #948311",
"%. c #958513",
"&. c #918115",
"*. c #938417",
"=. c #958615",
"-. c #91861A",
/* pixels */
") + X   o Y ) ) ) ) ) ) ) ) ) ) ) ) ) ) ) O o O ^ o o + ) ) ",
"+ o X o . + ^ ) ) ) ) ) ) ) ) ) ) ) ) ) Y X   o ^ o . o Y ) ",
"o   o + O o O Y ) ) ) ) ) ) ) ) ) ) ) ) +     o / Y o . O / ",
"  X O ) Y o X Y ) ) ) ) ) ) ) Y + + / ) + . o Y ) / O X O / ",
"+ + ^ ) ^ + O Y ) ) ) ) ) ) ) o   o / ) Y Y Y / ) ) Y Y Y / ",
") ) ) ) ) / / / ) ) ) ) ) ) ^ X   X Y ) ) ) ) ) ) ) ) ) ) ) ",
") ) ) ) ) ) ) ) ) ) ) ) ) ) Y .     O ) ) ) ) ) ) ) ) ) ) ) ",
") ) ) ) ) ) ) ) ) ) ) ) ) / O X     X / ) ) ) ) ) ) ) ) ) ) ",
") ) ) ) ) ) ) ) ) ) ) ) ) Y o .       + ) ) ) ) ) ) ) ) ) ) ",
") ) ) ) ) ) ) ) ) ) ) ) ^ + . O X     o ~ ) ) ) ) ) ) ) ) ) ",
") ) ) ) ) ) ) ) ) ) ) Y o X o Y + .     o ~ ) ) ) ) ) ) ) ) ",
") ) ) ) ) ) ) ) ) E D L L f S F N x = *   Y ) ) ) ) ) ) ) ) ",
") ) ) ) ) ) ! Q #.@.P P J J P P P J +.K e T ) ) ) ) ) ) ) ) ",
"+ + + ) ) Q P L L &.J J @.L J J L @.J P J L W ) ) ) ) ) ^ ^ ",
"o   o / Q P L K J *.=.%.&.&.+.J J J J J @.&.P ) ) ) ) ) O o ",
"      m -.P L P =.o...O.J J  ..... .%.=.@.L P ) ) ) ) Y .   ",
"      D &.P P &.......O.K P  .........&.P L P N ) ) ) O     ",
"      s J P J  . . . .J J J X.......$.J K P a C } ) / o     ",
"o X   s P P P J P P J J P P @.&.J J P L L H t t N ) Y .     ",
".   x A H J J L P L J J L L P &.P P P K d t t t B ( O     . ",
".   c U p t H H H K L P L K H a d p y y y t t t R ~ X       ",
"O o v I p t t t t t t t t t t t t t t t t t t t ' ~ o . X X ",
") ) | u t 0 t t t t t t t t t t t t t t t t 7 7 ; / Y + + ~ ",
") ) ) 8 i i t t t t t t t t t t t t t t t t 8 6 5 ` ] [ { { ",
") ' M 8 p d p t t t t t t t t t t t t t t t i i 0 j ) ) ) ) ",
") T z r d d p 0 0 0 r t p i i r i i t t 0 t d d i 4 ) ) ) ) ",
") & 3 0 d d p i i i 0 , r K i i p p p 7 > r d K p 7 9 ) ) ) ",
"^ % > 8 0 i i i i i 8 > 0 0 i w i Z C 4 > 0 p d d 0 2 Y ) ) ",
"+ % 1 2 > 3 q q V k 5 < < g b : _ ) ; h g 5 4 r i 0 2 O / ) ",
"o # - & % % - ^ ) _ : n ; G ) ) ) ) ) ) Y * $ k z l @ o Y ) "
};
