/* XPM */
static char *_6df608bd23c4e60cab20f17e6b04d6828NyAQCosvSG9h4G[] = {
/* columns rows colors chars-per-pixel */
"30 30 177 2 ",
"   c #0F772D",
".  c #10772E",
"X  c #11782F",
"o  c #157A32",
"O  c #1A7D36",
"+  c #1E7F39",
"@  c #2B6E28",
"#  c #376623",
"$  c #3C6322",
"%  c #3B6C2C",
"&  c #2B732C",
"*  c #2F7330",
"=  c #3E7539",
"-  c #3B7A3D",
";  c #524B0E",
":  c #5E540E",
">  c #4E4F16",
",  c #514E10",
"<  c #525414",
"1  c #585512",
"2  c #5E5914",
"3  c #5C5D1B",
"4  c #615712",
"5  c #665C12",
"6  c #685E14",
"7  c #53601F",
"8  c #6D6315",
"9  c #62621D",
"0  c #6C641A",
"q  c #716516",
"w  c #746813",
"e  c #75671C",
"r  c #756A19",
"t  c #7A6E1A",
"y  c #7D7015",
"u  c #77751B",
"i  c #7C711B",
"p  c #4B5A22",
"a  c #46662D",
"s  c #556522",
"d  c #5A6623",
"f  c #5B6923",
"g  c #44772A",
"h  c #5E7626",
"j  c #5F7729",
"k  c #446A30",
"l  c #417035",
"z  c #4F7831",
"x  c #5A7C37",
"c  c #547E39",
"v  c #646B25",
"b  c #6B6D23",
"n  c #706D21",
"m  c #7C6B22",
"M  c #737822",
"N  c #6F793C",
"B  c #3A7F42",
"V  c #847717",
"C  c #867817",
"Z  c #81751E",
"A  c #8A7C19",
"S  c #826D23",
"D  c #887622",
"F  c #8D6F30",
"G  c #8A753C",
"H  c #887E47",
"J  c #937741",
"K  c #987E4F",
"L  c #22813D",
"P  c #34833F",
"I  c #4D813D",
"U  c #79842E",
"Y  c #268541",
"T  c #288643",
"R  c #2B8947",
"E  c #2D8B49",
"W  c #338646",
"Q  c #398846",
"!  c #348D4D",
"~  c #478544",
"^  c #438A4F",
"/  c #568B58",
"(  c #4C935A",
")  c #579661",
"_  c #5B9662",
"`  c #5C9863",
"'  c #659B69",
"]  c #79A478",
"[  c #8E801D",
"{  c #928518",
"}  c #8F8123",
"|  c #8F812C",
" . c #928539",
".. c #9D8545",
"X. c #9C9156",
"o. c #A08D4E",
"O. c #A88A57",
"+. c #A7885A",
"@. c #869D77",
"#. c #9D9678",
"$. c #AF8C63",
"%. c #A39A67",
"&. c #A39C77",
"*. c #BA9572",
"=. c #BE9B7D",
"-. c #84A57C",
";. c #AAA276",
":. c #ADA47D",
">. c #B7A27F",
",. c #BE9E81",
"<. c #85AA80",
"1. c #82AB8A",
"2. c #8EAF8A",
"3. c #92B18B",
"4. c #97B593",
"5. c #9FB393",
"6. c #ADA681",
"7. c #B0A983",
"8. c #B6B08A",
"9. c #BAB38F",
"0. c #B9AD94",
"q. c #A5BB99",
"w. c #B5B591",
"e. c #B9B293",
"r. c #9FBBA1",
"t. c #A7BCA5",
"y. c #C29C80",
"u. c #C9A78B",
"i. c #C0AF99",
"p. c #C9B49D",
"a. c #D6B8A4",
"s. c #ACC3AC",
"d. c #BCC9AC",
"f. c #ADC5B1",
"g. c #BBC9B4",
"h. c #BFCFBB",
"j. c #C8C2AA",
"k. c #D2C4AD",
"l. c #CDC6B1",
"z. c #C4CFB3",
"x. c #C6CFBC",
"c. c #D1CCB0",
"v. c #D2CEB9",
"b. c #CBD3BC",
"n. c #D4D1BD",
"m. c #CCD4C3",
"M. c #CFD9C7",
"N. c #C8D7C9",
"B. c #D3D1C4",
"V. c #D9D7C5",
"C. c #D5D9C5",
"Z. c #DBDBC6",
"A. c #D2DACB",
"S. c #DDDACB",
"D. c #D5DFD4",
"F. c #DCDFD1",
"G. c #E1DECE",
"H. c #E2DED2",
"J. c #E9DED2",
"K. c #DCE0CC",
"L. c #DFE0D2",
"P. c #E4E3CF",
"I. c #E4E2D5",
"U. c #E6E4DA",
"Y. c #E9E7DC",
"T. c #EAE9DC",
"R. c #EDECE2",
"E. c #E8EDE7",
"W. c #F0EEE4",
"Q. c #F0EFE9",
"!. c #EEF2EC",
"~. c #F2F1E7",
"^. c #F3F2EC",
"/. c #F5F6F1",
"(. c #F9F9F3",
"). c #FAFAF6",
"_. c #FCFDFB",
/* pixels */
"E + X   o L E E E E E E E E E E E E E E E O o O T o o + E E ",
"+ o X o . + T E E E E E E E E E E E E E L X   o T o . o L E ",
"o   o + O o O L E E E E E E E E E E E E +     o R L o . O R ",
"  X O E L o X L E E E E E E E L + + R E + . o L E R O X O R ",
"+ + T ] -.-.^ L E E E E E E E o   o R E L L L R E E L L L R ",
"E E E q.b.d._ R E <.d.z.q.( T X   X L E E E E E E E E E E E ",
"E E E z.K.I.A.D.N.g.I.P.b.` L .     O E E E E E E E E E E E ",
"E E E Z.T.R.^./.^.E.I.G.C._ O X     X R E E E E 1.f.f.1.E E ",
"E E ) U.T.U.I.I.U.Y.I.I.b.^ o .       + E E E 1.A.!.E.r.E E ",
"E E ) L.H.I.B.B.S.B.R.E.t.+ . O X     o Y E ( h./.).!.s.E E ",
"E E ) m.F.I.H.I.I.I.I.U.g.5.5.^ / / B   o Y 4.~.).(.K.2.E E ",
"E E E E 3.m.T.U.~.Q.I.G.U.R.V.x.S.C.@.&   L M.)._.^.2.' E E ",
"E E E E E z.U.U.R.U.U.U.R.Y.U.E.^.T.c.9.N -.I._._.E.E E E E ",
"+ + + E E w.U.W.R.S.R.^.R.U.R.R.U.U.Y.R.U.Y.T.)./.N.E E T T ",
"o   o R U 9.~.).(.W.W.^.R.^.~.U.I.U.R.W.~.U.Z.m.s.1.E E O o ",
"      z { ;.R.).^.G.U.R.^.).W.U.I.U.U.U.G.V.8.] E E E L .   ",
"      M { X.U.R.R.U.U.I.~./.E.R.U.U.U.U.S.v.7.c E E E O     ",
"      u A A l.G.U.I.v.B.S.~.R.T.U.I.I.G.H.V.6.b ~ E R o     ",
"o X   u A  .j.Z.Y.I.:.X.%.e.:.;.e.v.G.H.I.n.&.r c E L .     ",
".   g m V o.k.J.W.G.%.[ }  .} [ ..>.k.S.S.:.H w x R O     . ",
".   h S t K u.a.J.v.| [ [ } [ A O.*.=.p.l.y w w I Y X       ",
"O o j S t J *.y.i.#.t C A A | } O.*.*.,.0.w w w Q Y o . X X ",
"E E ~ e r m F F S w w w w w y D ..O.$.+.G w 5 5 = R L + + Y ",
"E E E 6 r r w w w w w w w w w t S m t w w w 6 4 3 W ! ! ! ! ",
"E Q x 6 t i t w w w w w w w w w w w w w w w r r 8 s E E E E ",
"E P f q i i t 8 8 8 q w t r r q r r r r 8 w i i r 2 E E E E ",
"E % 1 8 i i t r r r 8 : q Z r r t t t 5 ; q i Z t 5 7 E E E ",
"T $ ; 6 8 r r r r r 6 ; 8 8 r 0 r n b 2 ; 8 t i i 8 < L E E ",
"+ $ , < ; 1 9 9 v d 3 > > p k - W E = a p 3 2 q r 8 < O R E ",
"o @ * % $ $ * T E W - l = B E E E E E E L & # d f s @ o L E "
};
