/* XPM */
static char *_cfaa4a685604be2ae532f369348e0f3czNCddjb55qH2FpG[] = {
/* columns rows colors chars-per-pixel */
"30 30 139 2 ",
"   c #0F772D",
".  c #10772E",
"X  c #1A762E",
"o  c #12782F",
"O  c #137830",
"+  c #177B33",
"@  c #177B34",
"#  c #187B34",
"$  c #197C35",
"%  c #1C7D37",
"&  c #1E7F39",
"*  c #427637",
"=  c #447A3D",
"-  c #7D7952",
";  c #7D7F57",
":  c #817E57",
">  c #867D58",
",  c #8E7A5B",
"<  c #8D7C5B",
"1  c #917256",
"2  c #967058",
"3  c #97755C",
"4  c #9E765F",
"5  c #92795C",
"6  c #98785E",
"7  c #866B6A",
"8  c #886C6C",
"9  c #8A7770",
"0  c #977C79",
"q  c #B76B67",
"w  c #B06E64",
"e  c #B46C66",
"r  c #BC6869",
"t  c #A57160",
"y  c #A27461",
"u  c #A87262",
"i  c #AB7064",
"p  c #20803B",
"a  c #21813D",
"s  c #24833F",
"d  c #268542",
"f  c #288643",
"g  c #2B8947",
"h  c #2D8846",
"j  c #2D8B49",
"k  c #2F8C4A",
"l  c #328B49",
"z  c #318C4B",
"x  c #338D4C",
"c  c #378D4E",
"v  c #4D894D",
"b  c #628551",
"n  c #6B8352",
"m  c #768155",
"M  c #688D60",
"N  c #629361",
"B  c #789369",
"V  c #9D866D",
"C  c #94886A",
"Z  c #9E807E",
"A  c #8A9373",
"S  c #8B9776",
"D  c #8D9D7B",
"F  c #8E9E7C",
"G  c #969D7D",
"H  c #A38282",
"J  c #B18C8C",
"K  c #A79881",
"L  c #B29282",
"P  c #B89385",
"I  c #B3928F",
"U  c #BC9B8D",
"Y  c #B99493",
"T  c #BA9494",
"R  c #95A180",
"E  c #ABA08B",
"W  c #ADA991",
"Q  c #BDA494",
"!  c #B2AB94",
"~  c #BEAF9D",
"^  c #C39C9C",
"/  c #DB9F9E",
"(  c #C1A395",
")  c #C2A799",
"_  c #CCA79D",
"`  c #D0A29B",
"'  c #D5A09D",
"]  c #CAA8A3",
"[  c #CDABA5",
"{  c #DFA6A5",
"}  c #D0AAA0",
"|  c #D5A8A1",
" . c #D3ADA9",
".. c #D6AEAC",
"X. c #DFAAA8",
"o. c #C6B2A2",
"O. c #CFB2A7",
"+. c #CAB4A5",
"@. c #D0B6A9",
"#. c #D7B5AB",
"$. c #D7B6AD",
"%. c #DAB0AE",
"&. c #DEB3AD",
"*. c #D9B4AC",
"=. c #D6B9AE",
"-. c #DBB8AF",
";. c #DBB1B0",
":. c #DDB2B1",
">. c #DAB9B0",
",. c #DDB9B1",
"<. c #E0B0AC",
"1. c #E1B3B3",
"2. c #E8B7B4",
"3. c #E3B9B3",
"4. c #E1BBB5",
"5. c #E5B8B4",
"6. c #E1BEB6",
"7. c #E8B9B6",
"8. c #E5BBB9",
"9. c #E9BCB8",
"0. c #EFBFBF",
"q. c #F2BFBE",
"w. c #F4BEBE",
"e. c #E5C0B8",
"r. c #E8C1BB",
"t. c #E9C1BC",
"y. c #ECC1BC",
"u. c #EEC4BF",
"i. c #F0C0BE",
"p. c #EEC4C0",
"a. c #F7C3C3",
"s. c #F1C5C1",
"d. c #F7C7C6",
"f. c #F8C5C5",
"g. c #F8C8C7",
"h. c #FAC9C8",
"j. c #FCCACA",
"k. c #FFCBCC",
"l. c #FFCCCC",
/* pixels */
"j & o   + s j j j j j j j j j j j j j j j $ + $ f + O & j j ",
"& + o + . & f j j j j j j j j j j j j j a o   + f + . + s j ",
"+   + & $ O $ s j j j j j j j j j j j j &     @ g a + . $ g ",
"  o $ j a + o a j j N N N j j p & & g j & . O a j g $ o $ g ",
"& & f j f & $ M +.6.p.s.6.~ j +   + g j s a a g j j s a a g ",
"j j j j j g g D d.j.j.j.l.s.6.A   o a j j j j j j j j j j j ",
"j j j j j j j o.h.0.:. .8.l.g.O.A   $ j j j j j j j j j j j ",
"j j j j j j j r.j.;.0 9 [ t.j.d.,.  o g j j j j j j j j j j ",
"j j j j j j F %.1.^ Z H ] >.d.l.y.    S F F j j j j j j j j ",
"j j j j j N @.Y 8 J 1.;.0.d.h.j.s.X E 4.s.o.j j j j j j j j ",
"j j j j j N u.T 7 I j.j.h.d.j.f.&.* $.j.j.6.j j j j j j j j ",
"j j j j j N 6.1... .h.j.i.&.&.X.P = y.l.l.h.>.! F j j j j j ",
"j j j j j j ~ u.j.j.h.0.{ 2 - : : m f.l.l.l.j.h.@.j j j j j ",
"& & & j j j j >.g.j.s._ 1 t , ; F ` j.l.l.l.l.j.@.j j j f f ",
"+   + g j j j R ~ @.) L 3 w q <.d.j.j.j.d.d.g.p.! j j j $ + ",
"      a j j j j b n > u i w / a.l.k.a.| G N N N j j j a .   ",
"      & j j j j : y 4 5 5 P 7.j.j.j.#.v l j j j j j j $     ",
"      # f j j j ( 2.5.Q } 9.h.j.w.' B j j j j j j j g O     ",
"+ o   o $ f j j -.h.j.y.q.l.d.*.K m , , , j j j j j p .     ",
".       O f j j =.j.j.j.j.5.#.F j j , r < k k z x h $     . ",
".     . $ f j j ! e.l.l.g.U j j j j , , , j j j j d o       ",
"% + + & f j j j j o.h.j.f.V v , , : j j j j j j j d @ . o o ",
"j j j j j j j j j N 6.h.3.C v 6 e : j j j j j j j g a & & d ",
"j j j j j j j j j N ~ ~ W j v , , : k k k k k k z z z x c c ",
"j j j j j j j j j j j j j j j j j j j j j g d p a d j j j j ",
"j d a p d j j j j j j j j j j j j j j j j f & O o $ j j j j ",
"j $ . o & g j j j j j j j j j j j j j j j d + o   + a j j j ",
"f +   . # p j j j j j j j j j j j j j j j s +   o   + a j j ",
"& o o +   $ s j j j j j j j j j j j j j g & o O +     $ g j ",
"+ . $ & + . $ f j j j j j j j j j j j j p + . $ & +   + p j "
};
