/* XPM */
static char *_a798dd535844a159464938150db21f4[] = {
/* columns rows colors chars-per-pixel */
"30 30 163 2 ",
"   c #000200",
".  c #020C03",
"X  c #0D0802",
"o  c #120601",
"O  c #021204",
"+  c #021B07",
"@  c #151D0B",
"#  c #280602",
"$  c #250B02",
"%  c #281E0C",
"&  c #3C1005",
"*  c #351D1D",
"=  c #05220D",
"-  c #032F0D",
";  c #043712",
":  c #0B3217",
">  c #0D3719",
",  c #0D381A",
"<  c #183417",
"1  c #38240C",
"2  c #343304",
"3  c #37231E",
"4  c #3A2828",
"5  c #590E06",
"6  c #660806",
"7  c #720907",
"8  c #6F1308",
"9  c #412109",
"0  c #543F1D",
"q  c #0B451C",
"w  c #10401F",
"e  c #124321",
"r  c #154C26",
"t  c #0F5322",
"y  c #18562B",
"u  c #1B5D2F",
"i  c #0E762D",
"p  c #10772E",
"a  c #11782F",
"s  c #1D6332",
"d  c #157A32",
"f  c #1A7D36",
"g  c #1E7F39",
"h  c #206A36",
"j  c #226D38",
"k  c #267A3F",
"l  c #4A4706",
"z  c #4A4807",
"x  c #595409",
"c  c #67620B",
"v  c #746E0D",
"b  c #4A712B",
"n  c #4D7538",
"m  c #507D3C",
"M  c #646E2B",
"N  c #726828",
"B  c #786936",
"V  c #786B38",
"C  c #777A3F",
"Z  c #79793F",
"A  c #287E42",
"S  c #617A40",
"D  c #6A7E41",
"F  c #757C41",
"G  c #A50E0E",
"H  c #A90F0F",
"J  c #B40D0D",
"K  c #BC0D0C",
"L  c #AB100F",
"P  c #B4120E",
"I  c #BC100C",
"U  c #A81510",
"Y  c #A71A11",
"T  c #AA1B12",
"R  c #B21B11",
"E  c #902010",
"W  c #86391D",
"Q  c #A32B17",
"!  c #BD2A16",
"~  c #A2331C",
"^  c #B7391D",
"/  c #CE0807",
"(  c #C60A09",
")  c #CD0D09",
"_  c #D30606",
"`  c #D30A07",
"'  c #D20E08",
"]  c #C7130C",
"[  c #CE140B",
"{  c #CC1D0E",
"}  c #D1140A",
"|  c #D0190C",
" . c #C11E10",
".. c #CE220F",
"X. c #CD2411",
"o. c #C32815",
"O. c #CA2C15",
"+. c #C5361B",
"@. c #C33C1D",
"#. c #9B561F",
"$. c #B74218",
"%. c #974321",
"&. c #9B4223",
"*. c #865A2C",
"=. c #995A2D",
"-. c #A84E28",
";. c #BD4422",
":. c #BA4A25",
">. c #B54F28",
",. c #AD582D",
"<. c #B2532A",
"1. c #99622E",
"2. c #846133",
"3. c #8E6B34",
"4. c #8E6F39",
"5. c #9E6534",
"6. c #956B37",
"7. c #986936",
"8. c #936D39",
"9. c #87733B",
"0. c #A36131",
"q. c #C04120",
"w. c #AC5656",
"e. c #B25B5A",
"r. c #B0615C",
"t. c #AB7979",
"y. c #BD7979",
"u. c #22813D",
"i. c #268541",
"p. c #298643",
"a. c #2B8947",
"s. c #2D8B49",
"d. c #338C4C",
"f. c #538545",
"g. c #918912",
"h. c #A09815",
"j. c #ADA417",
"k. c #B3AB19",
"l. c #BDB41B",
"z. c #CCC21D",
"x. c #D0C61E",
"c. c #D8CD20",
"v. c #878585",
"b. c #959595",
"n. c #A08989",
"m. c #B28888",
"M. c #ACA7A7",
"N. c #B2AEAE",
"B. c #BBBABA",
"V. c #C38A8A",
"C. c #CA9B9B",
"Z. c #C3ACAC",
"A. c #D1ABAB",
"S. c #CBB5B5",
"D. c #CBCBCB",
"F. c #DBD8D8",
"G. c #EADADA",
"H. c #E3E3E3",
"J. c #EEE3E3",
"K. c #EFECEC",
"L. c #F5EDED",
"P. c #F7F2F2",
"I. c #FDFBFB",
/* pixels */
"s.g a i d u.s.s.s.s.s.s.s.p.A A p.s.s.s.s.f d f p.d d g s.s.",
"g d a d p g p.s.s.s.s.k h r , w s s.s.s.u.a i d p.d p d u.s.",
"d i d g f d f u.s.s.j r = = . . , s s.s.g i i d a.u.d p f a.",
"i a f s.u.d a u.s.k r l x c z 2   q a.s.g p d u.s.a.f a f a.",
"g g p.s.p.g f u.s.s O k.z.z.k.v . - a.s.u.u.u.a.s.s.u.u.u.a.",
"s.s.s.s.s.a.a.a.s.,   k.c.c.z.v   ; u.s.s.s.s.s.s.s.s.s.s.s.",
"s.s.s.s.s.s.s.s.k =   j.x.c.l.c   - t u u u u h k s.s.s.s.s.",
"s.s.s.A j y r e <     l h.h.g.. O O + = = = = : s s.s.s.s.s.",
"s.s.s.k r > + O X         . . o $ # $ $ @ = = : s s.s.s.s.s.",
"s.s.s.k s e < % 3 4 4 * & 1 9 5 6 7 7 8 0 u u h k s.s.s.s.s.",
"s.s.s.a.p.A n W S.K.I.L.A.Y E n.N.F.J.V.Q B s.s.s.s.s.s.s.s.",
"s.s.s.s.s.s.V r.P.H.D.D.S.H m.v.v.H.I.V.Y *.s.s.s.s.s.s.s.s.",
"s.s.s.s.s.s.B e.P.H.b.b.Z.H m.B.B.H.I.V.U %.s.s.s.s.s.s.s.s.",
"g g g s.s.s.V e.G.F.N.M.t.H C.J.I.I.L.U U *.s.s.s.s.s.s.p.p.",
"d i d a.s.s.S Q H e.w.w.G H H H y.y.y.H ~ V s.s.s.s.s.s.f d ",
"i i N 1.6.C s.~ H H H H H H H H H L U &.2.s.s.s.s.s.s.u.p i ",
"i i #...{ +.:.o.( K J H H H H H J I o.@.@.@.>.6.s.s.s.f i i ",
"i i #.{ ` ' | ` ` / K H H H H H P ] X.| } } | ,.s.s.a.d i i ",
"d a N $.O.X.| } ' ) K U H H H U J ! @.@.X.| X.,.s.s.u.p i i ",
"p i i b M 3.,.>.:.^ R U Y U U L T =.D F 4.5.6.F d.a.f i i p ",
"p i i p f p.s.s.s.S &.T P R P L ~ S s.s.s.s.s.s.s.i.a i i i ",
"f d d g p.s.s.s.s.s.V ^ { ) (  .-.s.s.s.s.s.s.s.s.i.d p a a ",
"s.s.s.s.s.s.s.s.s.s.f.@.' ) [ [ <.s.s.s.s.s.s.s.s.a.u.g g i.",
"s.s.s.s.s.s.s.s.s.s.7.O.} O.O.} >.s.s.s.s.s.s.s.d.d.d.d.d.d.",
"s.s.s.s.s.s.s.s.s.6.q.} +.:.X.X.<.s.s.s.s.a.i.u.u.i.s.s.s.s.",
"s.i.u.u.i.s.8.:.+.O.} X.,.0.X.| O.@.;.;.,.3.g d a f s.s.s.s.",
"s.f p a g a.5.} ` _ X.:.C 9.q.} _ } } } ..1.d a i d u.s.s.s.",
"p.d i p f u.5.O.} O.,.C s.f.5.:.@.O.O.O.q.=.d i a i d u.s.s.",
"g a a d i f m 4.4.9.s.s.s.s.s.s.f.D Z Z D n a d d i i f a.s.",
"d p f g d p f p.s.s.s.s.s.s.s.s.s.s.s.s.u.d p f g d i d u.s."
};
