/* XPM */
static char *_352e6e4631f479ba8dcf34f63ea1245[] = {
/* columns rows colors chars-per-pixel */
"30 30 144 2 ",
"   c black",
".  c gray20",
"X  c #373938",
"o  c #3E3E3E",
"O  c #0F772D",
"+  c #10772E",
"@  c #12782F",
"#  c #137830",
"$  c #177B33",
"%  c #177B34",
"&  c #187B34",
"*  c #197C35",
"=  c #1C7D37",
"-  c #1E7F39",
";  c #226D38",
":  c gray28",
">  c #555655",
",  c #417F4A",
"<  c #626262",
"1  c #776B6B",
"2  c #786C6C",
"3  c #7B7E7B",
"4  c #FF0606",
"5  c #FF3737",
"6  c #FF3D3D",
"7  c #8E7A3F",
"8  c #837C7A",
"9  c #FF4545",
"0  c #FF6262",
"q  c #FF6C6C",
"w  c #FD7271",
"e  c #F87471",
"r  c #FA7775",
"t  c #20803B",
"y  c #21813D",
"u  c #24833F",
"i  c #268542",
"p  c #288643",
"a  c #298744",
"s  c #2B8947",
"d  c #2D8B49",
"f  c #3E834C",
"g  c #378D4E",
"h  c #4C905B",
"j  c #5A8C62",
"k  c #668C69",
"l  c #629C6F",
"z  c #778E77",
"x  c #FD807F",
"c  c gray51",
"v  c #8B8383",
"b  c #898989",
"n  c #849A83",
"m  c #809D82",
"M  c #92948D",
"N  c #979090",
"B  c gray58",
"V  c #86AA8B",
"C  c #8BA98F",
"Z  c #8BAA90",
"A  c #8CAC91",
"S  c #9DA29A",
"D  c #9AA899",
"F  c #8EB295",
"G  c #9EBBA3",
"H  c #A6A7A3",
"J  c #A5A5A5",
"K  c #A3AAA0",
"L  c #AAAAA6",
"P  c #A9AFA5",
"I  c #A2BEA7",
"U  c #ABB3A9",
"Y  c #ACB5AA",
"T  c #ABBEAE",
"R  c #B1B3AC",
"E  c #BBB9AB",
"W  c #B7B3B3",
"Q  c #BAB7B6",
"!  c #BEB7B7",
"~  c #B0BEB0",
"^  c #BCBCB7",
"/  c #BFB8B8",
"(  c #BCBCBC",
")  c #C1BABA",
"_  c #C4BEBE",
"`  c #FFA5A5",
"'  c #F9ABA9",
"]  c #F9B4B3",
"[  c #ADC5B1",
"{  c #B3C7B6",
"}  c #B3C9B7",
"|  c #BBC5BB",
" . c #B7CBBB",
".. c #BDCCBF",
"X. c #CCCBBF",
"o. c #BCCFC0",
"O. c #BED0C1",
"+. c #C5C3C2",
"@. c #CBC6C6",
"#. c #CCC7C7",
"$. c #CBCBCB",
"%. c #CDCBCB",
"&. c #CECDCB",
"*. c #D1CDCC",
"=. c #CED0CC",
"-. c #CAD8CC",
";. c #D5D1D1",
":. c #D9D6D6",
">. c #D0DAD1",
",. c #D0DCD2",
"<. c #D1DDD3",
"1. c #D9DAD7",
"2. c #DDDBDB",
"3. c #FFC6C6",
"4. c #D6E1D8",
"5. c #D9E3DA",
"6. c #DBE4DD",
"7. c #DFE7E0",
"8. c #E1E1E1",
"9. c #E3E0E0",
"0. c #E1E7E2",
"q. c #E1E9E3",
"w. c #E6EAE6",
"e. c #E6ECE7",
"r. c #E7EDE8",
"t. c #E9E8E8",
"y. c #E8EEE9",
"u. c #FFE1E1",
"i. c #F6ECEB",
"p. c #F0EFEF",
"a. c #EAF0EB",
"s. c #EEF2EF",
"d. c #F0F1F0",
"f. c #F4F3F3",
"g. c #F1F5F2",
"h. c #F3F6F4",
"j. c #F4F6F4",
"k. c #FFF4F4",
"l. c #F7F9F7",
"z. c #F7F9F8",
"x. c #F8FAF8",
"c. c #FBFCFB",
"v. c #FBFCFC",
"b. c #FCFDFC",
/* pixels */
"d - @ O $ u d d d d d d d d d d d d d d d * $ * p $ # - d d ",
"- $ @ $ + - p d d d d F } o.G l d d d d y @ O $ p $ + $ u d ",
"$ O $ - * # * u d d [ 6.l.x.g.7. .l d d - O O % s y $ + * s ",
"O @ * d y $ @ y d F q.b.x.x.b.b.r...s d - + # y d s * @ * s ",
"- - p d p - * y f D &.t.x.j.g.g.b.0.o.d u y y s d d u y y s ",
"d d d d d s s s z 8 v %.b.b.b.g.j.b.q.F d d d d d d d d d d ",
"d d d d d d d d H 1 1 Q b.b.b.b.x.x.x.<.F d d d d d d d d d ",
"d d d d d d d d H 1 1 W b.b.b.b.b.z.v.x.-.d d d d d d d d d ",
"d d d d d d d d L 2 2 Q b.b.b.b.b.b.b.b.q.d d d d d d d d d ",
"d d d d d d d d M 2 2 +.b.b.b.b.b.b.c.b.y.d d d d d d d d d ",
"d d d 7 7 7 d d S 1 N 2.b.b.b.b.b.b.x.b.e.p d d d d d d d d ",
"d d X.' x ] <.F U +.+.j.b.b.b.b.b.b.b.b.w.u d d d d d d d d ",
"d d r 9 5 ` b.6.q.b.b.b.b.b.b.b.b.b.b.b.w.y d d d d d d d d ",
"- - w 4 6 3.b.b.v.b.b.b.b.b.b.b.b.b.b.b.y.a d d d d d d p p ",
"$ O e 0 q u.b.b.b.b.b.b.b.b.b.b.b.b.b.b.a.d d d d d d d * $ ",
"O O E i.k.b.b.b.b.b.b.b.b.b.b.b.b.b.b.b.x.o.l d d d d y + O ",
"O O O >.g.b.b.b.b.b.b.b.b.b.b.b.b.b.b.b.b.j.O.d d d d * O O ",
"O O O C o.g.b.b.b.b.$.( ( j.b.b.b.b.b.b.b.b.0.o.h d s # O O ",
"$ @ O @ * { 4.y.l.8.B o B j.b.b.b.b.b.b.b.b.2.+.R m t + O O ",
"+ O O O # p d ; 3 > . : J d.b.b.b.b.b.b.b.b.2.! ! ^ k O O + ",
"+ O O + * p d ; X     b 8.b.b.b.b.b.b.b.b.b.8.#.! / P , O O ",
"= $ $ - p d d ; 3 < c ( b.b.b.b.b.b.b.b.b.b.b.p.%.! / n @ @ ",
"d d d d d d d d r.b.b.b.b.b.b.b.b.b.b.b.b.b.b.b.;.) / Y - i ",
"d d d d d d d I y.b.b.b.b.b.b.b.b.b.b.b.b.b.b.b.;.) ) ~ g g ",
"d d d d d d O.y.b.b.b.b.b.b.b.b.b.b.b.b.b.b.b.f.@.! _ ~ d d ",
"d i y t i d q.b.b.b.b.b.b.b.b.b.b.b.b.b.b.p.:.@./ ! *.V d d ",
"d * + @ - F j.b.b.b.b.b.b.b.b.b.b.b.b.b.x.2.) ! ! %.1.l d d ",
"p $ O + & A x.b.b.b.b.b.b.b.b.b.b.b.b.b.x.:.) ! _ =.T u d d ",
"- @ @ $ O C q.x.b.b.b.b.b.b.b.b.b.b.b.b.j.| K P D j O * s d ",
"$ + * - $ + Z <.s.x.j.j.j.h.j.x.l.j.a.5.{ $ @ - - $ O $ t d "
};
