/* XPM */
static char *_bbca3ef6a2d431fab160456fd293176[] = {
/* columns rows colors chars-per-pixel */
"20 20 58 1 ",
"  c #FE3705",
". c #FF3F01",
"X c #FE3A05",
"o c #FF3C04",
"O c #FE340A",
"+ c #FE3B0B",
"@ c #FF3F09",
"# c #FE2917",
"$ c #FD271B",
"% c #FE3316",
"& c #FF3D10",
"* c #FF3A16",
"= c #FF3E15",
"- c #FE3119",
"; c #FE3519",
": c #FF3918",
"> c #FF3C1B",
", c #FF3B1D",
"< c #FD2320",
"1 c #FE2822",
"2 c #FE2C21",
"3 c #FE2A2A",
"4 c #FF3722",
"5 c #FF3627",
"6 c #FF3824",
"7 c #FF3529",
"8 c #FF312F",
"9 c #FF3030",
"0 c #FF4100",
"q c #FF4401",
"w c #FF4005",
"e c #FF4505",
"r c #FF4A02",
"t c #FF4F01",
"y c #FF4B07",
"u c #FF4008",
"i c #FF400C",
"p c #FF460F",
"a c #FF490F",
"s c #FF5301",
"d c #FF5501",
"f c #FF5307",
"g c #FF5D02",
"h c #FF530F",
"j c #FF5F09",
"k c #FF5113",
"l c #FF5A13",
"z c #FF5C10",
"x c #FF6103",
"c c #FF6104",
"v c #FF6F03",
"b c #FF7302",
"n c #FF7502",
"m c #FF7801",
"M c #FF7C01",
"N c #FF4D21",
"B c #FF8600",
"V c #FF8800",
/* pixels */
"99999999999999999999",
"9931$-;:*&@wwww&4999",
"97+.000000000000+<99",
"97.0000000000000.<99",
"97.000qtstrssr000%99",
"98 000ajcccccle00&99",
"99 000fvbmvvxje00w99",
"99X000gMBBBMxcd00w99",
"99o000xMBVVMxxs00w99",
"99o00qxnBBBmxls00u99",
"99.00qgcvvvxch000=99",
"99.00qkzxxxxze00w799",
"99X0007Njccla0wwi999",
"99O000weyypw000w5999",
"99#000000000000,9999",
"99200000000000&89999",
"9995>&wuu&uww&699999",
"99999999999999999999",
"99999999999999999999",
"99999999999999999999"
};
