/* XPM */
static char *_ae9478724894266a5dd04b016d90d55[] = {
/* columns rows colors chars-per-pixel */
"30 30 112 2 ",
"   c #0D421C",
".  c #08561E",
"X  c #0C5822",
"o  c #0F772D",
"O  c #10772E",
"+  c #11782F",
"@  c #157A32",
"#  c #1A7D36",
"$  c #1E7F39",
"%  c #267A3F",
"&  c #59645B",
"*  c #747574",
"=  c #FB2E2E",
"-  c #F93431",
";  c #B9561F",
":  c #A85D22",
">  c #D4563B",
",  c #E95D52",
"<  c #FB5554",
"1  c #FC6161",
"2  c #F87472",
"3  c #FC7E7E",
"4  c #22813D",
"5  c #268542",
"6  c #288643",
"7  c #2B8947",
"8  c #2D8B49",
"9  c #348D4D",
"0  c #44814E",
"q  c #4E925E",
"w  c #5B8962",
"e  c #5A8D63",
"r  c #5C9065",
"t  c #67826C",
"y  c #629C6F",
"u  c #639C70",
"i  c #EA837B",
"p  c #799F81",
"a  c #7DA886",
"s  c #878C87",
"d  c #809B84",
"f  c #83A389",
"g  c #8AA88E",
"h  c #9BA88D",
"j  c #8DAF93",
"k  c #8EB295",
"l  c #9CB49F",
"z  c #9EBAA2",
"x  c #A2A2A2",
"c  c #A5A5A5",
"v  c #AAAAAA",
"b  c #ACACAC",
"n  c #A5B2A7",
"m  c #AABEAD",
"M  c #B0B0AF",
"N  c #B2B2B2",
"B  c gray72",
"V  c #E59E96",
"C  c #D8A297",
"Z  c #FAA8A7",
"A  c #FCB9B8",
"S  c #ABC1AE",
"D  c #BCC0AF",
"F  c #B3C9B7",
"G  c #BDC0BD",
"H  c #BCCBBE",
"J  c #BCCEC0",
"K  c #BED0C1",
"L  c #C1C1C1",
"P  c #C4C6C5",
"I  c #C8C9C8",
"U  c #CBCBCB",
"Y  c #CECECE",
"T  c #C6D5C9",
"R  c #CFD0CF",
"E  c #CAD8CC",
"W  c #CFD0D0",
"Q  c #CFD9D1",
"!  c #D0D2D1",
"~  c #D3D4D4",
"^  c gray83",
"/  c #D3DCD4",
"(  c #D7DED8",
")  c gray85",
"_  c gainsboro",
"`  c #FADCDB",
"'  c #D6E1D8",
"]  c #DBE1DC",
"[  c #DEE0DF",
"{  c #E6E1DC",
"}  c #DFE7E1",
"|  c gray89",
" . c #E3E4E3",
".. c #E4E4E4",
"X. c #E7ECE8",
"o. c #E9E9E9",
"O. c #EAEDEA",
"+. c #EBEFEC",
"@. c #EEEEEE",
"#. c #F1EFEF",
"$. c #FEE8E8",
"%. c #EEF1EE",
"&. c gray94",
"*. c #F4F5F3",
"=. c #F3F6F4",
"-. c #F4F4F4",
";. c #FEF3F3",
":. c #F6F8F7",
">. c #F9FAF9",
",. c #FCFBFB",
"<. c #FBFCFB",
"1. c #FEFEFE",
/* pixels */
"8 8 $ @ @ 6 # @ # 8 K *.1.1.1.1.1.1.1.1.1.O.k 8 4 @ o + $ 8 ",
"8 4 @ O @ 6 @ o + J  .1.1.<.:.<.1.:.:.:.1.:.K 6 $ O @ + @ $ ",
"7 # O @ 4 % X . n  .1.:.&.+.:.1.1.1.1.-.X.:. .S @ # $ @ o @ ",
"7 # + # 7 %   & I 1.>.1.1.1.1.1.1.&.,.1.>.@.%.] m 4 8 # + o ",
"7 4 4 4 8 % t s N P -.1.1.1.1.1.1.,.1.1.1.1.#.%.] j 8 6 $ $ ",
"8 8 8 8 8 8 T P * v -.1.1.1.1.1.1.1.1.1.1.1.1.&.o.F 8 8 8 8 ",
"8 8 8 8 8 8 ] L x B -.1.1.1.1.1.1.1.1.-.1.1.1.1.&.( 8 8 8 8 ",
"8 8 8 8 8 y G c M o.1.1.1.1.1.1.1.1.1.1.1.1.1.1.1./ y 8 8 8 ",
"8 8 8 8 8 z P * b -.1.1.1.1.1.1.1.1.1.1.,.1.1.1.1.) z 8 8 8 ",
"8 8 8 8 8 J ! I I -.1.1.1.1.1.1.1.1.1.1.1.1.1.1.1...E 8 8 8 ",
"8 8 8 8 k *.1.1.1.1.1.1.1.1.1.1.1.1.1.1.1.1.1.1.1.&.} 8 8 8 ",
"8 8 8 8 / 1.1.1.1.1.1.1.1.1.1.1.1.1.1.1.1.1.1.1.1.>.O.8 8 8 ",
"8 8 8 k O.1.1.1.1.1.1.1.1.1.1.1.1.1.1.-.1.1.1.1.1.>.O.8 8 8 ",
"6 h D { 1.1.1.1.1.1.1.1.1.1.1.1.1.1.1.<.1.1.1.1.1.>.} $ $ $ ",
"@ C Z A ;.1.1.1.1.1.1.1.1.1.1.1.1.1.1.1.1.1.1.1.-.=.J @ o @ ",
"o i < 3 $.1.1.1.1.1.1.1.1.1.1.1.1.1.1.1.1.1.1.1.1.1.m o o o ",
"o , = 1 ` :.1.1.1.1.1.1.>.&.@.-.>.1.1.1.1.1.1.1.1.1.] o o o ",
"o > - 2 $.1.1.1.1.1.1.1.&._ Y Y ^ ..>.1.1.>.....@.1.O.o o o ",
"o : ; V ;.1.1.1.1.1.1.1.&._ Y P P Y _ &.1.&.Y P Y | %.o + @ ",
"O o o l :.1.1.1.1.1.1.1.>.&.| ^ I P I | 1.&.Y P L ! ^ 0 o O ",
"o o o e  .1.1.1.1.1.1.1.1.1.1.>...! P ! &.>...^ I P I w o O ",
"+ + O @ S 1.1.1.1.1.1.1.1.1.1.1.1.) I I @.1.1.1.^ P P d @ # ",
"5 $ $ 4 a :.1.1.1.1.1.1.1.1.1.1.>.! P I @.1.1.1.^ P P f 8 8 ",
"9 9 9 9 u *.1.1.1.1.1.1.1.1.1.1.@.I P ! >.1.1.>.! P I p 8 8 ",
"8 8 8 8 5 %.1.1.1.1.1.1.1.1.1...I P P | 1.1.| W P P R q 8 8 ",
"8 8 8 8 # O.1.1.<.1.1.1.1.1.| Y L L ! &.1.| ! L P ~ W 4 5 8 ",
"8 8 8 4 @ Q :.1.1.1.1.1.1.1.| L P I | 1.1.| L I ! R g O # 8 ",
"8 8 4 @ o g Q *.1.1.1.1.1.1.| _ _ &.1.1.1.| | [  .g O o @ 6 ",
"8 7 # o o @ e l H E ' } X.X.} ' E E E E E E J z r o @ + + $ ",
"8 4 @ o @ $ # O @ 4 8 8 8 8 8 8 8 8 8 8 8 8 6 # O @ $ # O @ "
};
