/* XPM */
static char *_3268b0f4c56427ca393862687a146ca[] = {
/* columns rows colors chars-per-pixel */
"30 30 124 2 ",
"   c gray2",
".  c #0C0B0B",
"X  c #131111",
"o  c #1B1A1A",
"O  c #232020",
"+  c #282525",
"@  c #322D2D",
"#  c gray19",
"$  c #403C3C",
"%  c #0F772D",
"&  c #10772E",
"*  c #11782F",
"=  c #157A32",
"-  c #1A7D36",
";  c #1E7F39",
":  c #464242",
">  c gray32",
",  c #5B5757",
"<  c #5B5A5A",
"1  c #655C5C",
"2  c #656464",
"3  c #6E6565",
"4  c #6B6A6A",
"5  c #736A6A",
"6  c #747474",
"7  c #7C7373",
"8  c #7C7C7C",
"9  c #FB2E2E",
"0  c #F93431",
"q  c #B9561F",
"w  c #A85D22",
"e  c #D4563B",
"r  c #807575",
"t  c #E95D52",
"y  c #FB5554",
"u  c #FC6161",
"i  c #F87472",
"p  c #FC7E7E",
"a  c #22813D",
"s  c #268542",
"d  c #288643",
"f  c #2B8947",
"g  c #2D8B49",
"h  c #348D4D",
"j  c #5A8D63",
"k  c #5C9065",
"l  c #629C6F",
"z  c #639C70",
"x  c #EA837B",
"c  c #7DA886",
"v  c #858484",
"b  c gray54",
"n  c #948C8B",
"m  c #998D8D",
"M  c #9A9797",
"N  c #9C9C9C",
"B  c #A49797",
"V  c #AC9F9F",
"C  c #8AA88E",
"Z  c #9BA88D",
"A  c #8DAF93",
"S  c #8EB295",
"D  c #9CB49F",
"F  c #9EBAA2",
"G  c #A5A3A3",
"H  c #A8A1A1",
"J  c #AAAAAA",
"K  c #B2A3A3",
"L  c #B9AAAA",
"P  c #AABEAD",
"I  c #B1B1B1",
"U  c #BCB3B2",
"Y  c #BFBABA",
"T  c #E59E96",
"R  c #D8A297",
"E  c #C7BABA",
"W  c #CCBCBC",
"Q  c #FAA8A7",
"!  c #FCB9B8",
"~  c #ABC1AE",
"^  c #BCC0AF",
"/  c #B3C9B7",
"(  c #B5C9B9",
")  c #BCCBBE",
"_  c #BCCEC0",
"`  c #BED0C1",
"'  c #C5C2C2",
"]  c #CCC5C5",
"[  c #CCCBCA",
"{  c #D2C4C4",
"}  c #D3CCCC",
"|  c #D9CDCD",
" . c #C6D5C9",
".. c #CAD8CC",
"X. c #CFD9D1",
"o. c #D5D4D4",
"O. c #DDD4D4",
"+. c #D3DCD4",
"@. c #DAD8D7",
"#. c #D7DED8",
"$. c #DCDBDA",
"%. c #E3DCDB",
"&. c #FADCDB",
"*. c #D6E0D7",
"=. c #D6E1D8",
"-. c #DBE3DC",
";. c #E6E1DC",
":. c #DFE7E1",
">. c #E3E4E3",
",. c #EAE4E4",
"<. c #E4EAE5",
"1. c #E7ECE8",
"2. c #EAEDEA",
"3. c #F1ECEC",
"4. c #FEE8E8",
"5. c #EEF1EE",
"6. c #F2F0EF",
"7. c #EFF3F0",
"8. c #F4F5F3",
"9. c #FEF3F3",
"0. c #F6F9F7",
"q. c #FBFCFB",
"w. c gray99",
"e. c #FEFEFE",
/* pixels */
"g ; * % = a g S 2.e.e.e.e.e.e.e.e.e.8.` g - = - d = = ; g g ",
"; = * = & ; d ` 0.e.0.0.0.e.q.0.q.e.e.>._ * % = d = & = a g ",
"= % = ; - = ~ >.0.<.8.q.e.e.e.0.<.>.7.e.>.) % = f a = & - f ",
"% * - g a P -.2.[ U H H ' e.e.e.e.1.*.<.e.>.P a g f - * - f ",
"; ; d g A -.2.U n 7 3 5 Y e.e.e.e.,.%.%.2.e.-.S g g a a a f ",
"g g g g / @.H 4 : + @ 1 Y e.e.e.0.} W { O.0.0. .g g g g g g ",
"g g g g #.n $ o . O @ v 8.e.e.e.0.] W W { 8.e.<.g g g g g g ",
"g g g l +.2 X : K L L U @.e.e.e.e.@.W W { 6.e.5.l g g g g g ",
"g g g F o.: : V E W E U o.e.e.e.e.2.{ W } 8.e.0.F g g g g g ",
"g g g ..@.> 7 E W W W E o.e.e.e.e.e.%.O.O.0.q.0._ g g g g g ",
"g g g :.$., n W W W E } 0.e.e.e.e.e.%.{ | 3.e.e.8.S g g g g ",
"g g g 2.>.< n W W E ' e.e.e.e.e.e.e.%.{ { %.e.e.e.+.g g g g ",
"g g g 1.o.5 r U E U @.e.e.e.e.e.e.e.,.{ W O.e.e.e.2.S g g g ",
"; ; ; -.$.n , m B U 0.e.e.e.e.e.e.e.0.| { %.e.e.e.e.;.^ Z d ",
"= % = ( 1.[ M n M } e.e.e.e.e.e.e.e.0.,.,.,.e.e.e.9.! Q R = ",
"% % % P e.e.e.e.e.e.e.e.1.>.>.0.e.e.e.e.e.e.e.e.e.4.p y x % ",
"% % % -.e.e.e.e.e.e.e.e.' 4 v ' e.e.e.e.e.e.e.e.0.&.u 9 t % ",
"% % % 2.e.e.e.e.e.e.e.e.b # o G e.e.e.e.e.e.e.e.e.4.i 0 e % ",
"= * % 5.e.e.e.e.e.e.e.e.4 . o b e.e.e.e.e.e.e.e.e.9.T q w % ",
"& % % <.e.e.e.e.e.e.e.>.<   o b e.e.e.e.e.e.e.e.e.0.D % % & ",
"& % % <.e.e.e.e.e.e.e.N 2 8 6 6 ' e.e.e.e.e.e.e.e.>.j % % % ",
"- = = <.e.e.e.e.e.e.e.6 I 1.1.I 8 e.e.e.e.e.e.e.e.~ = & * * ",
"g g g 1.e.e.e.e.e.e.e.2 I 0.0.I 4 e.e.e.e.e.e.e.0.c a ; ; s ",
"g g g 5.e.e.e.e.e.e.e.N G o.o.J b e.e.e.e.e.e.e.8.z h h h h ",
"g g g 2.e.e.0.e.e.e.e.[ b : 2 G >.e.e.e.e.e.e.e.5.s g g g g ",
"g s a #.0.e.0.e.e.e.e.e.>.o.o.0.e.e.e.e.e.q.e.e.2.- g g g g ",
"g - & C +.0.e.e.e.e.e.e.e.e.e.e.e.e.e.e.e.e.e.0.X.= a g g g ",
"d = % & C >.0.q.q.e.e.e.e.e.e.e.e.e.e.e.e.e.8.X.C % = a g g ",
"; * * = % k F _ ............=.:.1.1.:.=...) D j = % % - f g ",
"= & - ; = & - d g g g g g g g g g g g g a = & - ; = % = a g "
};
