/* XPM */
static char *ca733a7883fb46ed9ee7bb07e5bf09f8[] = {
/* columns rows colors chars-per-pixel */
"30 30 156 2 ",
"   c #773D17",
".  c #793817",
"X  c #783C17",
"o  c #763E18",
"O  c #7B3B18",
"+  c #7C3B18",
"@  c #7F3E19",
"#  c #365F1B",
"$  c #1F621B",
"%  c #20631A",
"&  c #20651B",
"*  c #20631C",
"=  c #21681E",
"-  c #236F1D",
";  c #286B1C",
":  c #346F1D",
">  c #3F6B1E",
",  c #386E1D",
"<  c #24731E",
"1  c #2D711E",
"2  c #33741F",
"3  c #39721F",
"4  c #216820",
"5  c #236E20",
"6  c #226A25",
"7  c #247123",
"8  c #247420",
"9  c #247327",
"0  c #257627",
"q  c #247328",
"w  c #267729",
"e  c #26782A",
"r  c #277A2E",
"t  c #347322",
"y  c #3E7221",
"u  c #3E7620",
"i  c #267731",
"p  c #277932",
"a  c #277C31",
"s  c #277A34",
"d  c #287D33",
"f  c #287E36",
"g  c #287E3A",
"h  c #575E1C",
"j  c #5E591A",
"k  c #5B5C1B",
"l  c #5B5C1C",
"z  c #6F4818",
"x  c #6B4D19",
"c  c #774018",
"v  c #714518",
"b  c #76481D",
"n  c #65531A",
"m  c #64541A",
"M  c #62561C",
"N  c #685019",
"B  c #6A5C1E",
"V  c #71561D",
"C  c #7B511F",
"Z  c #42631F",
"A  c #45631E",
"S  c #46661E",
"D  c #4E621E",
"F  c #4D651C",
"G  c #416A1D",
"H  c #46681C",
"J  c #54611B",
"K  c #56661F",
"L  c #506B1E",
"P  c #7E4B22",
"I  c #7E4D22",
"U  c #655C21",
"Y  c #6D5A23",
"T  c #6D5F23",
"R  c #7B5821",
"E  c #7C5A24",
"W  c #7D5D24",
"Q  c #586822",
"!  c #596C23",
"~  c #5E6D22",
"^  c #477020",
"/  c #577322",
"(  c #507327",
")  c #517922",
"_  c #587A23",
"`  c #666021",
"'  c #666622",
"]  c #6E6524",
"[  c #676B23",
"{  c #676B24",
"}  c #716124",
"|  c #7D6021",
" . c #7D6726",
".. c #746D25",
"X. c #6A7E25",
"o. c #796430",
"O. c #6E7B3E",
"+. c #7A763B",
"@. c #75783C",
"#. c #587F41",
"$. c #677E40",
"%. c #803F1A",
"&. c #83411B",
"*. c #84431B",
"=. c #86461D",
"-. c #8A481D",
";. c #8D4A1E",
":. c #8F4C1F",
">. c #8C4B21",
",. c #8F4D20",
"<. c #944226",
"1. c #914524",
"2. c #914F21",
"3. c #875422",
"4. c #8F5424",
"5. c #895826",
"6. c #825A2A",
"7. c #8F5D28",
"8. c #965725",
"9. c #995423",
"0. c #985624",
"q. c #9E5825",
"w. c #925728",
"e. c #9E572A",
"r. c #955F2B",
"t. c #9E592A",
"y. c #9F5C2B",
"u. c #A34F2D",
"i. c #A54E2E",
"p. c #A25B26",
"a. c #A15C27",
"s. c #A3562B",
"d. c #A9532C",
"f. c #896328",
"g. c #8F6228",
"h. c #976128",
"j. c #9B612B",
"k. c #9D602A",
"l. c #9A622C",
"z. c #8E6B32",
"x. c #8B6D34",
"c. c #936830",
"v. c #29813A",
"b. c #2A813E",
"n. c #2A843F",
"m. c #758127",
"M. c #798228",
"N. c #7E8329",
"B. c #2A8241",
"V. c #2B8541",
"C. c #2C8946",
"Z. c #2D8B49",
"A. c #458746",
"S. c #518241",
"D. c #87862A",
"F. c #968B2D",
/* pixels */
"Z.Z.Z.Z.Z.Z.Z.Z.Z.Z.Z.Z.V.V.V.Z.Z.Z.Z.Z.Z.Z.Z.Z.Z.Z.Z.Z.Z.Z.",
"Z.Z.Z.Z.Z.Z.Z.C.V.v.r e 0 8 8 0 d n.n.C.Z.Z.Z.Z.Z.Z.Z.Z.Z.Z.",
"Z.Z.Z.Z.Z.Z.d 8 < < < < < < < < 8 8 0 0 q i b.Z.Z.Z.Z.Z.Z.Z.",
"Z.Z.Z.Z.Z.f 8 < < < < < X.X.X.< < 7 7 = $ $ 6 Z.Z.Z.Z.Z.Z.Z.",
"Z.Z.Z.Z.B.= & = < < < < m.F.m.< < < = % $ $ 4 C.Z.Z.Z.Z.Z.Z.",
"Z.Z.Z.Z.p $ $ & - < < < m.N.m.< 3 H A # $ $ = n.Z.Z.Z.Z.Z.Z.",
"Z.Z.Z.Z.9 & $ $ D T ] ! u u u < [ 7.4.U $ = 8 d Z.Z.Z.Z.Z.Z.",
"Z.Z.Z.V.8 - & $ Y u.1.I k < < < [ t.e.` = < < w Z.Z.Z.Z.Z.Z.",
"Z.Z.Z.f < < - & T i.<.. m H 1 < B R R ~ 7 8 < 0 Z.Z.Z.Z.Z.Z.",
"Z.Z.Z.e < < < < Q 6.P b v j F k x   k < 8 8 < 0 Z.Z.Z.Z.Z.Z.",
"Z.Z.Z.e < < < < < < < J N j M v o x k < 0 < < 0 V.Z.Z.Z.Z.Z.",
"Z.Z.Z.r < < < < < < < G H H x . c h : < 8 0 8 8 n.Z.Z.Z.Z.Z.",
"Z.Z.Z.v.- - - - < 2 u u 2 < n   z > ; S A Z & = g Z.Z.Z.Z.Z.",
"Z.Z.Z.V.- & % & - _ M.M._ < J k k : A 5.w.E $ * s Z.Z.Z.Z.Z.",
"Z.Z.Z.Z.7 & $ $ & / D.D._ < ~ [ [ 3 A w.d.E $ & s Z.Z.Z.Z.Z.",
"Z.Z.Z.Z.f 5 ` 5.5...X.X.) <  .y.g.^ G W W } = 7 v.Z.Z.Z.Z.Z.",
"Z.Z.Z.Z.C.w ' s.s.` < < < H C >.3.^ < < < 8 < r C.Z.Z.Z.Z.Z.",
"Z.Z.Z.Z.Z.r { f.f.[ < < , m c X V 3 < < < < w f Z.Z.Z.Z.Z.Z.",
"Z.Z.Z.Z.Z.f 8 < < < < < H z   v l < 7 7 < < r C.Z.Z.Z.Z.Z.Z.",
"Z.Z.Z.Z.Z.V.r 0 < < 7 t H x x k : < 7 < < 0 v.C.Z.Z.Z.Z.Z.Z.",
"Z.Z.Z.Z.Z.Z.C.f e w ( f.| ` K L ^ y 0 w a v.Z.Z.Z.Z.Z.Z.Z.Z.",
"Z.Z.Z.Z.Z.Z.Z.Z.Z.Z.r.-.=.;.p.p.p.h.S.C.Z.Z.Z.Z.Z.Z.Z.Z.Z.Z.",
"Z.Z.Z.Z.Z.Z.Z.Z.Z.A.8.&.. -.p.p.p.a.@.Z.Z.Z.Z.Z.Z.Z.Z.Z.Z.Z.",
"Z.Z.Z.Z.Z.Z.Z.Z.Z.O.0.*.*.;.9.9.9.p.l.Z.Z.Z.Z.Z.Z.Z.Z.Z.Z.Z.",
"Z.Z.Z.Z.Z.Z.Z.Z.Z.c.q.9.9.q.-.@ *.9.a.x.Z.Z.Z.Z.Z.Z.Z.Z.Z.Z.",
"Z.Z.Z.Z.Z.Z.Z.Z.z.2.-.-.9.p.-.O O =.2.a.A.Z.Z.Z.Z.Z.Z.Z.Z.Z.",
"Z.Z.Z.Z.Z.Z.Z.#.2.&.. @ 9.p.2.=.O . @ =.4.A.Z.Z.Z.Z.Z.Z.Z.Z.",
"Z.Z.Z.Z.Z.A.o.=.@ . + *.9.p.p.9.*.+ . + :.y.c.+.$.A.Z.Z.Z.Z.",
"Z.Z.Z.Z.+.l.,.+ . %.-.9.p.p.p.p.9.-.&.&.:.p.p.a.j.+.Z.Z.Z.Z.",
"Z.Z.Z.Z.+.p.:.*.=.2.q.p.p.p.a.k.a.a.q.q.q.p.p.p.a.+.Z.Z.Z.Z."
};
