/* XPM */
static char *_26bdb9f220c40ea95d1ba50137adb13[] = {
/* columns rows colors chars-per-pixel */
"30 30 16 1 ",
"  c None",
". c #010804",
"X c #08170E",
"o c #0D2718",
"O c #0F371B",
"+ c #164429",
"@ c #174A2C",
"# c #17572A",
"$ c #286A2C",
"% c #317335",
"& c #257747",
"* c #2D8432",
"= c #268C43",
"- c #42AD47",
"; c #51BC56",
": c #4AD951",
/* pixels */
"                              ",
"                              ",
"                              ",
"                              ",
"                              ",
"                              ",
"                              ",
"                              ",
"                              ",
"                              ",
"           +++++++            ",
"         ++;::::;:++          ",
"        o-*::;:::::%+         ",
"        o:;**::;;-%:;o        ",
"      oo--;;;;-;:;$;-o        ",
"     o==-$$*-;;--$$--=o       ",
"     o&=&=-$----$$--==o       ",
"     o@&===----=&====@o       ",
"     o@@O@==@#==#=&#@#o       ",
"      .@@@@==##@@&#@#Xo       ",
"       .XX@@#@@@#@#@X.        ",
"        ..X#@@@XXXXX.         ",
"          .XXXX.....          ",
"           ....               ",
"                              ",
"                              ",
"                              ",
"                              ",
"                              ",
"                              "
};
