/* XPM */
static char *c5509a807e4c4f4cba9806073268a976[] = {
/* columns rows colors chars-per-pixel */
"30 30 154 2 ",
"   c black",
".  c gray20",
"X  c #373938",
"o  c #3E3E3E",
"O  c #0F772D",
"+  c #11772F",
"@  c #11782F",
"#  c #137930",
"$  c #177B33",
"%  c #177B34",
"&  c #187B34",
"*  c #1B7D37",
"=  c #1C7D37",
"-  c #1E7F39",
";  c #226D38",
":  c gray28",
">  c #555655",
",  c #626262",
"<  c #756868",
"1  c #786D6D",
"2  c #7B7E7B",
"3  c #FF0606",
"4  c #FF3737",
"5  c #FF3D3D",
"6  c #8E7A3F",
"7  c #837C7A",
"8  c #FF4545",
"9  c #FF6262",
"0  c #FF6C6C",
"q  c #FD7271",
"w  c #F87471",
"e  c #FA7775",
"r  c #20803B",
"t  c #21813D",
"y  c #24833F",
"u  c #268541",
"i  c #278542",
"p  c #288643",
"a  c #2B8947",
"s  c #2D8B49",
"d  c #3E834C",
"f  c #348D4D",
"g  c #4C905B",
"h  c #5A8C62",
"j  c #5D9267",
"k  c #5F9468",
"l  c #658B67",
"z  c #678F6B",
"x  c #61946A",
"c  c #629C6F",
"v  c #778E77",
"b  c #6A9670",
"n  c #709F79",
"m  c #FD807F",
"M  c #7E9980",
"N  c gray51",
"B  c #8B8383",
"V  c #898989",
"C  c #809D82",
"Z  c #899986",
"A  c #8A9D89",
"S  c #92948D",
"D  c #979090",
"F  c #959595",
"G  c #8DA38E",
"H  c #8BAA8F",
"J  c #8BAA90",
"K  c #8CAC91",
"L  c #9DA29A",
"P  c #9AA79A",
"I  c #8EB295",
"U  c #A2A49F",
"Y  c #9EBBA3",
"T  c #A6A7A3",
"R  c #A5A5A5",
"E  c #A5ADA2",
"W  c #AAAAA6",
"Q  c #A2BEA7",
"!  c #ABB3A9",
"~  c #B0B0AB",
"^  c #B1B2AC",
"/  c #BBB9AB",
"(  c #B7B3B3",
")  c #B7B6B2",
"_  c #BBB3B3",
"`  c #B8B4B2",
"'  c #BAB7B6",
"]  c #BEB7B7",
"[  c #B6BDB4",
"{  c #BCBBB7",
"}  c #BEBBB8",
"|  c #BCBCBC",
" . c #C0BBBA",
".. c #C3BDBD",
"X. c #C4BEBE",
"o. c #FFA5A5",
"O. c #F9ABA9",
"+. c #F9B4B3",
"@. c #ADC5B1",
"#. c #B2C5B5",
"$. c #B3C9B7",
"%. c #B7CBBB",
"&. c #BDC9BE",
"*. c #BDCCBF",
"=. c #CCCBBF",
"-. c #BECFC1",
";. c #BED0C1",
":. c #C7C1C1",
">. c #C6C3C3",
",. c #CAC5C5",
"<. c #CCC6C6",
"1. c #CBCBCB",
"2. c #CECDCB",
"3. c #C3D1C6",
"4. c #CAD8CC",
"5. c #D1D1CF",
"6. c #D7D3D3",
"7. c #D6D5D3",
"8. c #D0DAD1",
"9. c #D1DDD3",
"0. c #DDDADA",
"q. c #DFDCDC",
"w. c #FFC6C6",
"e. c #D6E1D8",
"r. c #D9E3DA",
"t. c #DBE4DD",
"y. c #DFE7E0",
"u. c #E1E1E1",
"i. c #E1E7E2",
"p. c #E1E8E2",
"a. c #E1E9E3",
"s. c #E6EAE6",
"d. c #E6ECE7",
"f. c #E7ECE8",
"g. c #EAEAE9",
"h. c #ECEAEA",
"j. c #E8EEE9",
"k. c #EAEEEB",
"l. c #FFE1E1",
"z. c #F6ECEB",
"x. c #F0EFEF",
"c. c #EAF0EB",
"v. c #EEF2EF",
"b. c #F0F1F0",
"n. c #F1F5F2",
"m. c #F3F6F4",
"M. c #F5F6F5",
"N. c #FFF4F4",
"B. c #F7F9F7",
"V. c #F7F9F8",
"C. c #FAFBFA",
"Z. c #FBFCFB",
"A. c #FBFCFC",
"S. c #FCFDFC",
/* pixels */
"s s - # $ p * $ * s s s s s s s s s s s s s s s y $ O @ - s ",
"s y $ + $ p $ O @ t s s s s c Y -.$.I s s s s p - + $ @ $ - ",
"a * + $ t a % O O - s s c %.y.n.C.B.t.@.s s y * # * - $ O $ ",
"a * @ * a s t # + - s a *.f.S.S.C.C.S.p.I s t @ $ t s * @ O ",
"a t t y s s a t t u s -.i.S.n.n.M.C.g.2.P d t * - p s p - - ",
"s s s s s s s s s s I p.S.M.n.S.S.S.1.B 7 v a a a s s s s s ",
"s s s s s s s s s I 9.C.C.C.S.S.S.S.' < < U s s s s s s s s ",
"s s s s s s s s s 4.C.A.V.S.S.S.S.S.( < < T s s s s s s s s ",
"s s s s s s s s s p.S.S.Z.S.S.S.S.S.' 1 1 W s s s s s s s s ",
"s s s s s s s s s f.S.Z.S.S.S.S.S.S.:.1 1 S s s s s s s s s ",
"s s s s s s s s u s.S.C.S.S.S.S.S.S.q.D < L s s 6 6 6 s s s ",
"s s s s s s s s t s.S.Z.S.S.S.S.S.S.M.:.:.! I 9.+.m O.=.s s ",
"s s s s s s s s y s.S.S.S.S.S.S.S.S.S.S.S.p.t.S.o.4 8 e s s ",
"p p s s s s s s a k.S.S.S.S.S.S.S.S.S.S.S.Z.S.S.w.5 3 q - - ",
"$ * s s s s s s s c.S.S.S.S.S.S.S.S.S.S.S.S.A.S.l.0 9 w O $ ",
"O + t s s s s c -.C.S.S.S.S.S.S.S.S.S.S.S.S.S.S.S.N.z./ O O ",
"O O * s s x b &.n.S.S.S.S.S.S.S.S.S.S.S.S.S.S.S.S.n.8.O O O ",
"O O # a C E } 5.C.S.S.S.S.S.S.S.M.| | 1.S.S.S.S.n.-.H O O O ",
"O O + z { ] X.0.C.S.S.S.S.S.S.S.M.F o F u.V.k.e.#.* @ O @ $ ",
"+ O O [ } ] <.x.S.S.S.S.S.S.S.S.b.R : . > 2 ; s p # O O O + ",
"O + O ,.} } 0.S.S.S.S.S.S.S.S.S.S.u.V     X ; s p * + O O + ",
"@ @ h ,.] ..h.S.S.S.S.S.S.S.S.S.S.S.| N , 2 ; s s p - $ $ = ",
"u - j X._ X.C.S.S.S.S.S.S.S.S.S.S.S.S.S.S.d.s s s s s s s s ",
"f f n  ._ :.S.S.S.S.S.S.S.S.S.S.S.S.S.S.S.k.Q s s s s s s s ",
"s s k ` ] ,.S.S.S.S.S.S.S.S.S.S.S.S.S.S.S.S.k.;.s s s s s s ",
"s s k ^ ] X.6.g.C.S.S.S.S.S.S.S.S.S.S.S.S.S.S.p.s u t t u s ",
"s s g A ) _ X.q.S.S.S.S.S.S.S.S.S.S.S.S.S.S.S.M.I - # + * s ",
"s s t $ Z ~ } 7.C.S.S.S.S.S.S.S.S.S.S.S.S.S.S.C.K & + O $ p ",
"s a * O O l M G 3.C.S.S.S.S.S.S.S.S.S.S.S.S.Z.p.H O $ @ @ - ",
"s r $ O $ - * + $ #.r.c.M.B.V.M.m.M.M.M.C.v.9.J + $ - * + $ "
};
