/* XPM */
static char *ee0e5492967b4e4cb9b362eef7416296[] = {
/* columns rows colors chars-per-pixel */
"30 30 23 1 ",
"  c #0F772D",
". c #10772E",
"X c #12782F",
"o c #137830",
"O c #177B33",
"+ c #177B34",
"@ c #187B34",
"# c #197C35",
"$ c #1C7D37",
"% c #1E7F39",
"& c #20803B",
"* c #21813D",
"= c #24833F",
"- c #258441",
"; c #288643",
": c #298744",
"> c #2B8947",
", c #2D8846",
"< c #2D8B49",
"1 c #2E8C49",
"2 c #318C4B",
"3 c #338D4C",
"4 c #378D4E",
/* pixels */
"<%X O=<<<<<<<<<<<<<<<#O#;Oo%<<",
"%OXO.%;<<<<<<<<<<<<<*X O;O.O=<",
"O O%#o#=<<<<<<<<<<<<%  +>*O.#>",
" X#<*OX*<<<<<<<&%%><%.o*<>#X#>",
"%%;<;%#*<<<<<<<O O><=**><<=**>",
"<<<<<>>><<<<<<;X X*<<<<<<<<<<<",
"<<<<<<<<<<<<<<*.  #<<<<<<<<<<<",
"<<<<<<<<<<<<<>#X  X><<<<<<<<<<",
"<<<<<<<<<<<<<*O.   %<<<<<<<<<<",
"<<<<<<<<<<<<;%.@X  o-<<<<<<<<<",
"<<<<<<<<<<<*OXO*%.  O-<<<<<<<<",
"<<<<<<<<<>*@ .%<>#   *<<<<<<<<",
"<<<<<<<<<;O..O*<<>O .*<<<<<<<<",
"%%%<<<<<<;OX#;<<<<*%%:<<<<<<;;",
"O O><<<<<>**-<<<<<<<<<<<<<<<#O",
"   *<<<<<<<<<<<<<<<<<<<<<<<*. ",
"   %<<<<<<<<<<<<<<<<<<<<<<<#  ",
"   @;<<<<<<<<<<<<<<<<<<<<<>o  ",
"OX X#;<<<<<<<<<<<<<<<<<<<<&.  ",
".   o;<<<<<<<<<<<<<<11123,#  .",
".  .#;<<<<<<<<<<<<<<<<<<<-X   ",
"$OO%;<<<<<<<<<<<<<<<<<<<<-+.XX",
"<<<<<<<<<<<<<<<<<<<<<<<<<>*%%-",
"<<<<<<<<<<<<<<1<<1111111222344",
"<<<<<<<<<<<<<<<<<<<<<>-&*-<<<<",
"<-*&-<<<<<<<<<<<<<<<<;%oX#<<<<",
"<#.X%><<<<<<<<<<<<<<<-OX O*<<<",
";O .@&<<<<<<<<<<<<<<<=O X O*<<",
"%XXO #=<<<<<<<<<<<<<>%XoO  #><",
"O.#%O.#;<<<<<<<<<<<<&O.#%O O&<"
};
